<?xml version="1.0" encoding="utf-8"?>
<!-- Generator: Adobe Illustrator 27.3.1, SVG Export Plug-In . SVG Version: 6.00 Build 0)  -->
<svg version="1.1" id="レイヤー_1" xmlns="http://www.w3.org/2000/svg" xmlns:xlink="http://www.w3.org/1999/xlink" x="0px"
	 y="0px" viewBox="0 0 755.79 162.67" style="enable-background:new 0 0 755.79 162.67;" xml:space="preserve">
<style type="text/css">
	.st0{fill:#F0AF19;}
	.st1{fill:#787878;}
</style>
<g>
	<g>
		<g>
			<path class="st0" d="M485.81,18.38l-18.17,122.06h-16.46l-13.37-79.2h-0.34l-13.2,79.2h-16.46L389.64,18.38h18.52l8.74,77.49
				h0.34l13.71-77.49h13.37l14.23,79.37h0.34l8.4-79.37H485.81z"/>
			<path class="st1" d="M486.46,47.18c0-4.91,0.86-9.26,2.57-13.03c1.71-3.77,4-6.91,6.86-9.43c2.74-2.4,5.86-4.23,9.34-5.49
				c3.48-1.26,7-1.89,10.54-1.89c3.54,0,7.05,0.63,10.54,1.89c3.48,1.26,6.66,3.09,9.51,5.49c2.74,2.51,4.97,5.66,6.69,9.43
				c1.71,3.77,2.57,8.12,2.57,13.03v64.46c0,5.14-0.86,9.54-2.57,13.2c-1.71,3.66-3.94,6.69-6.69,9.09
				c-2.86,2.52-6.03,4.4-9.51,5.66c-3.49,1.26-7,1.89-10.54,1.89c-3.54,0-7.06-0.63-10.54-1.89c-3.49-1.26-6.6-3.14-9.34-5.66
				c-2.86-2.4-5.14-5.43-6.86-9.09c-1.71-3.66-2.57-8.06-2.57-13.2V47.18z M503.94,111.64c0,4.23,1.17,7.34,3.51,9.34
				c2.34,2,5.11,3,8.31,3c3.2,0,5.97-1,8.31-3c2.34-2,3.51-5.11,3.51-9.34V47.18c0-4.23-1.17-7.34-3.51-9.34c-2.34-2-5.12-3-8.31-3
				c-3.2,0-5.97,1-8.31,3c-2.34,2-3.51,5.12-3.51,9.34V111.64z"/>
			<path class="st1" d="M550.16,140.44V18.38h28.12c20.57,0,30.86,11.94,30.86,35.83c0,7.2-1.12,13.32-3.34,18.34
				c-2.23,5.03-6.14,9.09-11.74,12.17l18.86,55.71h-18.52L578.1,88.32h-10.46v52.12H550.16z M567.65,34.84v38.06h9.94
				c3.09,0,5.54-0.43,7.37-1.29c1.83-0.86,3.26-2.08,4.29-3.69c0.91-1.6,1.54-3.57,1.88-5.91c0.34-2.34,0.52-5.06,0.52-8.14
				c0-3.08-0.17-5.8-0.52-8.14c-0.34-2.34-1.03-4.37-2.06-6.09c-2.17-3.2-6.29-4.8-12.34-4.8H567.65z"/>
			<path class="st1" d="M615.51,140.44V18.38H633v55.71h0.34l25.54-55.71h17.49l-23.83,48.86l28.29,73.2h-18.51l-19.89-54.17
				L633,103.92v36.51H615.51z"/>
			<path class="st1" d="M736.68,53.52h-17.49v-3.94c0-4-0.94-7.46-2.83-10.37c-1.89-2.91-5.06-4.37-9.52-4.37
				c-2.4,0-4.34,0.46-5.83,1.37c-1.49,0.92-2.69,2.06-3.6,3.43c-0.92,1.49-1.54,3.17-1.89,5.06c-0.34,1.89-0.51,3.86-0.51,5.91
				c0,2.4,0.09,4.4,0.26,6c0.17,1.6,0.6,3.03,1.29,4.29c0.69,1.26,1.69,2.34,3,3.26c1.31,0.92,3.11,1.83,5.4,2.74l13.37,5.31
				c3.88,1.49,7.03,3.23,9.43,5.23c2.4,2,4.29,4.32,5.66,6.94c1.26,2.74,2.11,5.86,2.57,9.34c0.46,3.49,0.69,7.46,0.69,11.91
				c0,5.14-0.52,9.92-1.54,14.31c-1.03,4.4-2.69,8.14-4.97,11.23c-2.4,3.2-5.54,5.72-9.43,7.54c-3.89,1.83-8.63,2.74-14.23,2.74
				c-4.23,0-8.17-0.75-11.83-2.23c-3.66-1.48-6.8-3.54-9.43-6.17c-2.63-2.63-4.71-5.68-6.26-9.17c-1.54-3.49-2.31-7.29-2.31-11.4
				v-6.51h17.49v5.49c0,3.2,0.94,6.08,2.83,8.66c1.89,2.57,5.06,3.86,9.52,3.86c2.97,0,5.29-0.43,6.94-1.29
				c1.65-0.86,2.94-2.08,3.86-3.69c0.91-1.6,1.46-3.51,1.63-5.74c0.17-2.23,0.26-4.71,0.26-7.46c0-3.2-0.12-5.83-0.34-7.89
				c-0.23-2.06-0.69-3.71-1.37-4.97c-0.8-1.26-1.86-2.29-3.17-3.09c-1.31-0.8-3.06-1.66-5.23-2.57l-12.51-5.14
				c-7.54-3.08-12.6-7.17-15.17-12.26c-2.57-5.08-3.86-11.46-3.86-19.11c0-4.57,0.63-8.92,1.89-13.03
				c1.26-4.11,3.14-7.66,5.66-10.63c2.4-2.97,5.46-5.34,9.17-7.11c3.71-1.77,8.14-2.66,13.29-2.66c4.34,0,8.31,0.8,11.92,2.4
				c3.6,1.6,6.71,3.71,9.34,6.34c5.26,5.49,7.89,11.77,7.89,18.86V53.52z"/>
		</g>
	</g>
	<g>
		<g>
			<path class="st0" d="M19.12,144.26V19.02h25.89c10.05,0,17.68,2.81,22.88,8.44c5.2,5.63,7.8,13.6,7.8,23.92v58.57
				c0,11.73-2.77,20.38-8.31,25.95c-5.54,5.57-13.52,8.36-23.91,8.36H19.12z M36.6,35.91v91.47h8.06c4.91,0,8.4-1.26,10.46-3.78
				c2.06-2.52,3.09-6.48,3.09-11.87V51.39c0-4.92-0.97-8.73-2.91-11.43c-1.95-2.7-5.49-4.05-10.63-4.05H36.6z"/>
			<path class="st1" d="M81.21,144.26V19.02h52.12v16.89H98.69v36.76h30.17v16.89H98.69v36.76h34.63v17.94H81.21z"/>
			<path class="st1" d="M194.39,55.08H176.9v-4.05c0-4.1-0.94-7.65-2.83-10.64c-1.89-2.99-5.06-4.49-9.52-4.49
				c-2.4,0-4.34,0.47-5.83,1.41c-1.49,0.94-2.69,2.11-3.6,3.52c-0.92,1.53-1.54,3.25-1.89,5.19c-0.34,1.94-0.51,3.96-0.51,6.07
				c0,2.46,0.09,4.52,0.26,6.16c0.17,1.64,0.6,3.11,1.29,4.4c0.69,1.29,1.69,2.4,3,3.34c1.31,0.94,3.11,1.88,5.4,2.81l13.37,5.45
				c3.88,1.53,7.03,3.31,9.43,5.36c2.4,2.05,4.29,4.43,5.66,7.12c1.26,2.81,2.11,6.01,2.57,9.59c0.46,3.58,0.69,7.65,0.69,12.22
				c0,5.28-0.52,10.17-1.54,14.69c-1.03,4.52-2.69,8.36-4.97,11.52c-2.4,3.28-5.54,5.87-9.43,7.74c-3.89,1.87-8.63,2.81-14.23,2.81
				c-4.23,0-8.17-0.76-11.83-2.29c-3.66-1.52-6.8-3.63-9.43-6.33c-2.63-2.7-4.71-5.83-6.26-9.41c-1.54-3.58-2.31-7.48-2.31-11.7
				v-6.68h17.49v5.63c0,3.29,0.94,6.25,2.83,8.88c1.89,2.64,5.06,3.96,9.52,3.96c2.97,0,5.29-0.44,6.94-1.32
				c1.65-0.88,2.94-2.14,3.86-3.78c0.91-1.64,1.46-3.61,1.63-5.89c0.17-2.29,0.26-4.84,0.26-7.65c0-3.28-0.12-5.98-0.34-8.09
				c-0.23-2.11-0.69-3.81-1.37-5.1c-0.8-1.29-1.86-2.34-3.17-3.17c-1.31-0.82-3.06-1.7-5.23-2.64l-12.51-5.28
				c-7.54-3.17-12.6-7.36-15.17-12.58c-2.57-5.22-3.86-11.75-3.86-19.61c0-4.69,0.63-9.15,1.89-13.37
				c1.26-4.22,3.14-7.85,5.66-10.91c2.4-3.05,5.46-5.48,9.17-7.3c3.71-1.82,8.14-2.73,13.29-2.73c4.34,0,8.31,0.82,11.92,2.46
				c3.6,1.64,6.71,3.81,9.34,6.51c5.26,5.63,7.89,12.08,7.89,19.35V55.08z"/>
			<path class="st1" d="M198.45,144.26V19.02h17.49v125.24H198.45z"/>
			<path class="st1" d="M221.44,48.57c0-5.04,0.86-9.5,2.57-13.37c1.71-3.87,4-7.09,6.86-9.67c2.74-2.46,5.86-4.34,9.34-5.63
				c3.48-1.29,7-1.93,10.54-1.93c3.54,0,7.05,0.65,10.54,1.93c3.48,1.29,6.66,3.17,9.51,5.63c2.74,2.58,4.97,5.8,6.69,9.67
				c1.71,3.87,2.57,8.33,2.57,13.37v6.33h-17.49v-6.33c0-4.34-1.17-7.53-3.51-9.59c-2.34-2.05-5.12-3.08-8.31-3.08
				c-3.2,0-5.97,1.03-8.31,3.08c-2.34,2.05-3.51,5.25-3.51,9.59v66.14c0,4.34,1.17,7.54,3.51,9.59c2.34,2.05,5.11,3.08,8.31,3.08
				c3.2,0,5.97-1.03,8.31-3.08c2.34-2.05,3.51-5.25,3.51-9.59V91.14h-13.88V75.31h31.37v39.4c0,5.28-0.86,9.79-2.57,13.54
				c-1.71,3.75-3.94,6.86-6.69,9.32c-2.86,2.58-6.03,4.52-9.51,5.8c-3.49,1.29-7,1.93-10.54,1.93c-3.54,0-7.06-0.65-10.54-1.93
				c-3.49-1.29-6.6-3.22-9.34-5.8c-2.86-2.46-5.14-5.57-6.86-9.32c-1.71-3.75-2.57-8.27-2.57-13.54V48.57z"/>
			<path class="st1" d="M284.57,144.26V19.02h16.8l26.4,75.46h0.34V19.02h17.49v125.24h-16.46L302.4,68.98h-0.34v75.29H284.57z"/>
		</g>
	</g>
</g>
</svg>
