<?xml version="1.0" encoding="utf-8"?>
<!-- Generator: Adobe Illustrator 28.0.0, SVG Export Plug-In . SVG Version: 6.00 Build 0)  -->
<svg version="1.1" id="レイヤー_1" xmlns="http://www.w3.org/2000/svg" xmlns:xlink="http://www.w3.org/1999/xlink" x="0px"
	 y="0px" viewBox="0 0 326.5 127.4" style="enable-background:new 0 0 326.5 127.4;" xml:space="preserve">
<style type="text/css">
	.st0{fill:#F0AF19;}
	.st1{fill:#787878;}
</style>
<g>
	<g>
		<g>
			<path class="st0" d="M0,126.3V1.1h25.9c10.1,0,17.7,2.8,22.9,8.4s7.8,13.6,7.8,23.9V92c0,11.7-2.8,20.4-8.3,25.9
				c-5.5,5.6-13.5,8.4-23.9,8.4H0z M17.5,18v91.5h8.1c4.9,0,8.4-1.3,10.5-3.8c2.1-2.5,3.1-6.5,3.1-11.9V33.4c0-4.9-1-8.7-2.9-11.4
				c-2-2.7-5.5-4-10.6-4H17.5z"/>
			<path class="st1" d="M62.1,126.3V1.1h52.1V18H79.6v36.8h30.2v16.9H79.6v36.8h34.6v17.9H62.1z"/>
			<path class="st1" d="M175.3,37.1h-17.5v-4c0-4.1-0.9-7.7-2.8-10.6c-1.9-3-5.1-4.5-9.5-4.5c-2.4,0-4.3,0.5-5.8,1.4
				s-2.7,2.1-3.6,3.5c-0.9,1.5-1.5,3.2-1.9,5.2c-0.3,1.9-0.5,4-0.5,6.1c0,2.5,0.1,4.5,0.3,6.2s0.6,3.1,1.3,4.4
				c0.7,1.3,1.7,2.4,3,3.3c1.3,0.9,3.1,1.9,5.4,2.8l13.4,5.4c3.9,1.5,7,3.3,9.4,5.4c2.4,2.1,4.3,4.4,5.7,7.1c1.3,2.8,2.1,6,2.6,9.6
				c0.5,3.6,0.7,7.7,0.7,12.2c0,5.3-0.5,10.2-1.5,14.7c-1,4.5-2.7,8.4-5,11.5c-2.4,3.3-5.5,5.9-9.4,7.7c-3.9,1.9-8.6,2.8-14.2,2.8
				c-4.2,0-8.2-0.8-11.8-2.3c-3.7-1.5-6.8-3.6-9.4-6.3c-2.6-2.7-4.7-5.8-6.3-9.4c-1.5-3.6-2.3-7.5-2.3-11.7v-6.7h17.5v5.6
				c0,3.3,0.9,6.2,2.8,8.9c1.9,2.6,5.1,4,9.5,4c3,0,5.3-0.4,6.9-1.3c1.6-0.9,2.9-2.1,3.9-3.8c0.9-1.6,1.5-3.6,1.6-5.9
				c0.2-2.3,0.3-4.8,0.3-7.7c0-3.3-0.1-6-0.3-8.1c-0.2-2.1-0.7-3.8-1.4-5.1c-0.8-1.3-1.9-2.3-3.2-3.2c-1.3-0.8-3.1-1.7-5.2-2.6
				l-12.5-5.3c-7.5-3.2-12.6-7.4-15.2-12.6c-2.6-5.2-3.9-11.8-3.9-19.6c0-4.7,0.6-9.2,1.9-13.4s3.1-7.9,5.7-10.9
				c2.4-3,5.5-5.5,9.2-7.3C136.6,0.9,141,0,146.2,0c4.3,0,8.3,0.8,11.9,2.5c3.6,1.6,6.7,3.8,9.3,6.5c5.3,5.6,7.9,12.1,7.9,19.4
				L175.3,37.1L175.3,37.1z"/>
			<path class="st1" d="M179.3,126.3V1.1h17.5v125.2H179.3z"/>
			<path class="st1" d="M202.3,30.6c0-5,0.9-9.5,2.6-13.4s4-7.1,6.9-9.7c2.7-2.5,5.9-4.3,9.3-5.6c3.5-1.3,7-1.9,10.5-1.9
				s7,0.6,10.5,1.9c3.5,1.3,6.7,3.2,9.5,5.6c2.7,2.6,5,5.8,6.7,9.7c1.7,3.9,2.6,8.3,2.6,13.4V37h-17.5v-6.3c0-4.3-1.2-7.5-3.5-9.6
				c-2.3-2-5.1-3.1-8.3-3.1c-3.2,0-6,1-8.3,3.1c-2.3,2-3.5,5.2-3.5,9.6v66.1c0,4.3,1.2,7.5,3.5,9.6c2.3,2.1,5.1,3.1,8.3,3.1
				s6-1,8.3-3.1s3.5-5.2,3.5-9.6V73.2h-13.9V57.4h31.4v39.4c0,5.3-0.9,9.8-2.6,13.5c-1.7,3.8-3.9,6.9-6.7,9.3
				c-2.9,2.6-6,4.5-9.5,5.8c-3.5,1.3-7,1.9-10.5,1.9s-7.1-0.6-10.5-1.9c-3.5-1.3-6.6-3.2-9.3-5.8c-2.9-2.5-5.1-5.6-6.9-9.3
				c-1.7-3.8-2.6-8.3-2.6-13.5L202.3,30.6L202.3,30.6z"/>
			<path class="st1" d="M265.5,126.3V1.1h16.8l26.4,75.5h0.3V1.1h17.5v125.2H310L283.3,51h-0.3v75.3L265.5,126.3L265.5,126.3z"/>
		</g>
	</g>
</g>
</svg>
