<?xml version="1.0" encoding="utf-8"?>
<!-- Generator: Adobe Illustrator 28.0.0, SVG Export Plug-In . SVG Version: 6.00 Build 0)  -->
<svg version="1.1" id="レイヤー_1" xmlns="http://www.w3.org/2000/svg" xmlns:xlink="http://www.w3.org/1999/xlink" x="0px"
	 y="0px" viewBox="0 0 347.1 124.1" style="enable-background:new 0 0 347.1 124.1;" xml:space="preserve">
<style type="text/css">
	.st0{fill:#F0AF19;}
	.st1{fill:#787878;}
</style>
<g>
	<g>
		<path class="st0" d="M96.2,1L78,123.1H61.5L48.2,43.9h-0.3l-13.2,79.2H18.2L0,1h18.5l8.7,77.5h0.3L41.3,1h13.4l14.2,79.4h0.3
			L77.6,1C77.6,1,96.2,1,96.2,1z"/>
		<path class="st1" d="M96.8,29.8c0-4.9,0.9-9.3,2.6-13c1.7-3.8,4-6.9,6.9-9.4c2.7-2.4,5.9-4.2,9.3-5.5s7-1.9,10.5-1.9
			s7,0.6,10.5,1.9c3.5,1.3,6.7,3.1,9.5,5.5c2.7,2.5,5,5.7,6.7,9.4c1.7,3.8,2.6,8.1,2.6,13v64.5c0,5.1-0.9,9.5-2.6,13.2
			c-1.7,3.7-3.9,6.7-6.7,9.1c-2.9,2.5-6,4.4-9.5,5.7c-3.5,1.3-7,1.9-10.5,1.9s-7.1-0.6-10.5-1.9c-3.5-1.3-6.6-3.1-9.3-5.7
			c-2.9-2.4-5.1-5.4-6.9-9.1c-1.7-3.7-2.6-8.1-2.6-13.2L96.8,29.8L96.8,29.8z M114.3,94.3c0,4.2,1.2,7.3,3.5,9.3s5.1,3,8.3,3
			s6-1,8.3-3s3.5-5.1,3.5-9.3V29.8c0-4.2-1.2-7.3-3.5-9.3s-5.1-3-8.3-3c-3.2,0-6,1-8.3,3s-3.5,5.1-3.5,9.3V94.3z"/>
		<path class="st1" d="M160.5,123.1V1h28.1c20.6,0,30.9,11.9,30.9,35.8c0,7.2-1.1,13.3-3.3,18.3c-2.2,5-6.1,9.1-11.7,12.2l18.9,55.7
			h-18.5L188.5,71H178v52.1H160.5z M178,17.5v38.1h9.9c3.1,0,5.5-0.4,7.4-1.3s3.3-2.1,4.3-3.7c0.9-1.6,1.5-3.6,1.9-5.9
			s0.5-5.1,0.5-8.1s-0.2-5.8-0.5-8.1c-0.3-2.3-1-4.4-2.1-6.1c-2.2-3.2-6.3-4.8-12.3-4.8H178z"/>
		<path class="st1" d="M225.9,123.1V1h17.5v55.7h0.3L269.2,1h17.5l-23.8,48.9l28.3,73.2h-18.5l-19.9-54.2l-9.4,17.6v36.5
			L225.9,123.1L225.9,123.1z"/>
		<path class="st1" d="M347,36.2h-17.5v-3.9c0-4-0.9-7.5-2.8-10.4s-5.1-4.4-9.5-4.4c-2.4,0-4.3,0.5-5.8,1.4
			c-1.5,0.9-2.7,2.1-3.6,3.4c-0.9,1.5-1.5,3.2-1.9,5.1c-0.3,1.9-0.5,3.9-0.5,5.9c0,2.4,0.1,4.4,0.3,6s0.6,3,1.3,4.3
			c0.7,1.3,1.7,2.3,3,3.3s3.1,1.8,5.4,2.7l13.4,5.3c3.9,1.5,7,3.2,9.4,5.2c2.4,2,4.3,4.3,5.7,6.9c1.3,2.7,2.1,5.9,2.6,9.3
			c0.5,3.5,0.7,7.5,0.7,11.9c0,5.1-0.5,9.9-1.5,14.3c-1,4.4-2.7,8.1-5,11.2c-2.4,3.2-5.5,5.7-9.4,7.5c-3.9,1.8-8.6,2.7-14.2,2.7
			c-4.2,0-8.2-0.8-11.8-2.2c-3.7-1.5-6.8-3.5-9.4-6.2s-4.7-5.7-6.3-9.2c-1.5-3.5-2.3-7.3-2.3-11.4v-6.5h17.5v5.5
			c0,3.2,0.9,6.1,2.8,8.7c1.9,2.6,5.1,3.9,9.5,3.9c3,0,5.3-0.4,6.9-1.3s2.9-2.1,3.9-3.7c0.9-1.6,1.5-3.5,1.6-5.7
			c0.2-2.2,0.3-4.7,0.3-7.5c0-3.2-0.1-5.8-0.3-7.9c-0.2-2.1-0.7-3.7-1.4-5c-0.8-1.3-1.9-2.3-3.2-3.1c-1.3-0.8-3.1-1.7-5.2-2.6
			L307,64.8c-7.5-3.1-12.6-7.2-15.2-12.3c-2.6-5.1-3.9-11.5-3.9-19.1c0-4.6,0.6-8.9,1.9-13s3.1-7.7,5.7-10.6c2.4-3,5.5-5.3,9.2-7.1
			c3.7-1.8,8.1-2.7,13.3-2.7c4.3,0,8.3,0.8,11.9,2.4c3.6,1.6,6.7,3.7,9.3,6.3c5.3,5.5,7.9,11.8,7.9,18.9L347,36.2L347,36.2z"/>
	</g>
</g>
</svg>
